# xmcd
#
# Track frame offsets: 
#        150
#        17472
#        42925
#        66451
#        79902
#        100164
#        114415
#        127281
#        143126
#        151781
#
# Disc length: 2275 seconds
#
# Revision: 2
# Processed by: cddbd v1.5.2PL0 Copyright (c) Steve Scherf et al.
# Submitted via: ExactAudioCopy v0.99pb4
#
DISCID=8208e10a
DTITLE=Павел Кашин - Десятка
DYEAR=2004
DGENRE=Ballad
TTITLE0=Московская одиссея
TTITLE1=Тонны
TTITLE2=Цветы в джакузи
TTITLE3=Еще немного
TTITLE4=Высоцкому
TTITLE5=Положи на сердце руки
TTITLE6=Немного света
TTITLE7=Коричневый конверт
TTITLE8=Василий Теркин
TTITLE9=Колыбельная для маленьких девочек
EXTD=
EXTT0=
EXTT1=
EXTT2=
EXTT3=
EXTT4=
EXTT5=
EXTT6=
EXTT7=
EXTT8=
EXTT9=
PLAYORDER=
